<svg xmlns="http://www.w3.org/2000/svg" viewBox="0 0 3114.05 2248.09"><defs><style>.cls-1{fill:none;stroke:#fff;stroke-miterlimit:10;stroke-width:1.06px;}</style></defs><g id="Warstwa_2" data-name="Warstwa 2"><g id="Layer_1" data-name="Layer 1"><path class="cls-1" d="M3113.69,1551.68S2681,1137,2407.54,1449,1851.21,1612.16,1692,1237.65s-225.4-751.43-698.32-635.53S326.05,581.2,207.4,420.06,150.47,64.26,7.72.48"/><path class="cls-1" d="M3098.45,1577s-334.66-327.84-607.8-185.5a374.45,374.45,0,0,0-102,77.74c-272.63,292.55-536.89,123.18-689.55-248.78C1546.46,848,1458.92,473.86,988.81,593.49c-59.56,15.18-114.78,27.1-166,35.78C472,688.63,306.09,569.87,201.17,425.14,85.53,265.62,142.58,72.05,7.8.54"/><path class="cls-1" d="M3083.22,1602.26s-330.73-331.13-609.58-187.59c-36.88,18.94-72.07,42.82-103.8,74.71-271.64,273-517.46,83.24-663.53-286.16-146.13-370.38-255-741.73-722.35-618.37-59.32,15.71-114.39,28.93-165.63,39.26-347,70-517.21-45.17-623.38-193.89C82.26,272.37,134.69,79.85,7.89.6"/><path class="cls-1" d="M3068,1627.55s-326.8-334.43-611.35-189.69c-37.89,19.21-73.8,41.85-105.65,71.7C2080.52,1763,1853,1552.84,1713.48,1186,1573.9,817.7,1443.6,449.12,979.11,576.21,920,592.45,865.1,606.94,813.89,619,470.77,699.44,296.12,588,188.72,435.3,78.93,279.17,126.8,87.65,8,.65"/><path class="cls-1" d="M3052.75,1652.85s-322.85-337.73-613.11-191.8c-38.89,19.48-75.51,40.88-107.51,68.69-269.08,233.83-478.57,3.33-611.48-361-133-366.24-284.71-732-746.38-601.21-58.86,16.76-113.63,32.51-164.82,46.22C470.17,704.65,291.1,597.15,182.5,440.38,75.56,286,118.91,95.44,8.06.71"/><path class="cls-1" d="M3037.52,1678.14s-318.92-341-614.88-193.9c-39.9,19.75-77.19,39.9-109.36,65.68-267.48,214.27-459.14-36.62-585.46-398.34-126.49-364.18-299.54-727.19-758.4-592.64-58.62,17.29-113.23,34.28-164.4,49.7-335.45,101.08-519-2.35-628.74-163.18C72.14,292.88,111,103.24,8.15.77"/><path class="cls-1" d="M3022.29,1703.43s-315-344.32-616.65-196c-40.9,20-78.84,38.92-111.21,62.65-265.63,194.78-439.7-76.56-559.45-435.72C1615.05,772.25,1420.62,412,964.57,550.31c-58.38,17.81-112.84,36-164,53.17C469,714.66,281,615.46,170.05,450.54,68.67,299.79,103.13,111,8.23.82"/><path class="cls-1" d="M3007.06,1728.72S2696,1381.11,2388.64,1530.63c-41.91,20.28-80.46,37.95-113.06,59.64-263.51,175.37-420.27-116.51-533.43-473.12-113.39-360-329.18-717.49-782.43-575.48C901.58,560,847.28,579.42,796.15,598.32c-327.78,121.15-520.3,26.34-632.32-142.7C65.16,306.74,95.24,118.83,8.32.88"/><path class="cls-1" d="M2991.82,1754s-307.12-350.9-620.18-200.19c-42.91,20.55-82,37-114.91,56.63-261.11,156.09-400.83-156.46-507.41-510.51-106.84-358-344-712.65-794.45-566.91-57.91,18.88-112,39.47-163.16,60.13-324,131-521,40.72-634.11-132.45C61.6,313.71,87.35,126.63,8.4.93"/><path class="cls-1" d="M2976.59,1779.31s-303.19-354.21-622-202.3c-43.91,20.82-83.61,36-116.76,53.62-258.43,137-381.39-196.41-481.39-547.9C1656.2,726.81,1397.65,374.93,950,524.4c-57.67,19.4-111.67,41.16-162.74,63.6-320.22,140.74-521.77,55.13-635.9-122.21C58,320.71,79.46,134.43,8.49,1"/><path class="cls-1" d="M2961.36,1804.6s-299.25-357.5-623.73-204.39c-44.91,21.08-85.12,35.11-118.61,50.59-255.47,118.16-362-236.35-455.36-585.29C1669.91,711.66,1390,362.56,945.17,515.76c-57.43,19.93-111.29,42.84-162.33,67.09-316.49,150.36-522.57,69.55-637.69-112C54.38,327.73,71.57,142.22,8.57,1.05"/><path class="cls-1" d="M2946.12,1829.89s-295.31-360.8-625.49-206.49c-45.91,21.35-86.61,34.22-120.46,47.58-252.26,99.61-342.51-276.3-429.35-622.68-87.19-351.78-388.49-698.1-830.49-541.18-57.2,20.46-110.93,44.51-161.92,70.57C465.59,737.58,255,661.71,138.93,476,50.72,334.78,63.68,150,8.66,1.1"/><path class="cls-1" d="M2930.89,1855.18s-291.38-364.09-627.26-208.59c-46.92,21.62-88.08,33.37-122.31,44.57-248.84,81.4-323.07-316.25-403.33-660.07-80.64-349.72-403.32-693.26-842.51-532.6-57,21-110.57,46.15-161.51,74C464.78,741.86,249.68,671,132.71,481,47,341.84,55.79,157.82,8.74,1.16"/><path class="cls-1" d="M2915.66,1880.48s-287.45-367.39-629-210.69c-47.92,21.88-89.52,32.56-124.16,41.54-245.27,63.58-303.64-356.19-377.31-697.46-74.09-347.65-418.15-688.41-854.53-524a1071.72,1071.72,0,0,0-161.09,77.52c-305.64,178.69-525.23,113-643.06-81.26C43.29,348.93,47.9,165.61,8.83,1.22"/><path class="cls-1" d="M2900.43,1905.77s-283.52-370.69-630.8-212.79c-48.93,22.15-91,31.83-126,38.53-241.61,46.18-284.2-396.14-351.29-734.85-67.55-345.59-433-683.56-866.55-515.45a974.59,974.59,0,0,0-160.68,81c-302.14,188-526.22,127.59-644.84-71C39.53,356,40,173.41,8.91,1.27"/><path class="cls-1" d="M2885.19,1931.06s-279.58-374-632.56-214.89a431.46,431.46,0,0,1-127.86,35.52c-238,29.21-264.76-436.09-325.27-772.24-61-343.52-447.81-678.72-878.57-506.87a895.5,895.5,0,0,0-160.26,84.48C462,754.24,233.4,699.22,114,496.27,35.74,363.16,32.12,181.2,9,1.33"/><path class="cls-1" d="M2870,1956.35s-275.64-377.27-634.33-217c-50.93,22.69-93.82,30.57-129.72,32.51-234.39,12.66-245.32-476-299.25-809.64C1752.22,620.78,1344,288.36,916.08,463.94a833.47,833.47,0,0,0-159.85,88C460.87,758.24,227.86,708.68,107.81,501.35,31.92,370.29,24.23,189,9.08,1.39"/><path class="cls-1" d="M2854.73,1981.64s-271.71-380.57-636.1-219.08c-51.94,23-95.29,30-131.57,29.48-231-3.49-225.88-516-273.23-847-47.9-339.39-477.45-669-902.6-489.71A781.8,781.8,0,0,0,751.8,546.74C459.71,762.2,222.26,718.17,101.58,506.43c-73.51-129-85.24-309.63-92.41-505"/><path class="cls-1" d="M2839.5,2006.94s-267.78-383.87-637.88-221.19c-52.93,23.22-96.79,29.58-133.41,26.47-227.94-19.32-206.44-555.94-247.21-884.41-41.35-337.33-492.28-664.18-914.61-481.14q-83.32,36.22-159,94.91c-288.88,224.54-530.78,186.11-652-30.06C24.19,384.59,8.45,204.59,9.25,1.5"/><path class="cls-1" d="M2824.26,2032.23s-263.84-387.16-639.64-223.29c-53.94,23.49-98.35,29.18-135.26,23.46-225.21-34.88-187-595.89-221.19-921.81C1793.37,575.34,1321.06,251.27,901.54,438c-55.31,24.68-108.39,57.34-158.61,98.39C457.18,770,210.83,737.25,89.14,516.6,20.29,391.76.56,212.39,9.34,1.56"/><path class="cls-1" d="M2809,2057.52s-259.91-390.46-641.41-225.38c-54.94,23.75-100,28.81-137.11,20.44-222.88-50.26-167.57-635.84-195.17-959.2-28.25-333.19-521.94-654.48-938.65-464-55.07,25.2-108.13,58.9-158.2,101.86C455.81,773.87,205,746.84,82.91,521.68,16.36,398.94-7.33,220.19,9.42,1.61"/><path class="cls-1" d="M2793.8,2082.81s-256-393.75-643.18-227.48-283.54-604.18-308.12-979.16S1160.62,142.37,734.06,526.11-62.31,658.92,9.51,1.67"/><path class="cls-1" d="M2789.07,2090.66s-260.61-387.27-635-243.4c-120.49,46.29-192.7,1.16-232.63-95.69-88.42-214.46-67.86-620.18-95.45-860-24.41-212.19-266.71-431.15-539.25-494.64-182.13-42.42-374.59-24-546.58,122.64-47.73,40.69-94.76,74.71-141.46,101.58-365.55,211.43-647-43.29-589-619.43"/><path class="cls-1" d="M2784.34,2098.51s-265.14-380.82-626.91-259.33c-116.33,39.07-186.84-7.83-223.32-105.29-84.84-226.68-86.21-601.68-124.72-826.89-34.07-199.29-275.84-417.89-536.79-488.54C1097.33,371,919.83,373.11,746.19,513.05c-47.5,38.28-94.44,71.11-141.83,97.53C235.83,816.11-42.51,570.66,9.85,1.8"/><path class="cls-1" d="M2779.61,2106.36s-269.53-374.4-618.77-275.25c-112.15,31.84-180.81-17-214-114.9-81.07-239.15-104.59-583.26-154-793.79-43.75-186.48-285-404.7-534.33-482.45C1090,387.44,927.66,373.29,752.25,506.52,705,542.4,658.17,574.08,610.06,600,238.82,800.06-36.64,563.45,10,1.86"/><path class="cls-1" d="M2774.89,2114.21s-273.77-368-610.65-291.17c-107.91,24.61-174.6-26.19-204.7-124.51-77.08-251.83-123-564.94-183.26-760.7C1722.8,764.08,1482,546.23,1244.4,461.48c-161.69-57.67-308.79-88-486.08,38.51-46.94,33.49-93.72,64-142.56,89.43C241.83,784.05-30.77,556.24,10.19,1.92"/><path class="cls-1" d="M2770.16,2122.06S2492.34,1760.49,2167.65,1815c-103.62,17.38-168.25-35.5-195.4-134.13-72.84-264.68-141.5-546.71-212.53-727.59C1696.45,792.13,1456.15,574.63,1230.3,483c-155-62.87-286.62-109.3-465.92,10.46-46.6,31.13-93.35,60.47-142.92,85.38C244.88,768.08-24.91,549,10.36,2"/><path class="cls-1" d="M2765.43,2129.91s-281.66-355.1-594.38-323c-99.26,10.19-161.75-44.86-186.08-143.73-68.33-277.7-160.12-528.59-241.81-694.49-73.16-148.59-312.9-365.77-527-464.16C1067.92,436.36,951.86,374,770.45,486.93c-46.23,28.79-93,56.94-143.3,81.33C248,752.15-19,541.83,10.53,2.05"/><path class="cls-1" d="M2760.71,2137.76s-285.29-348.53-586.25-338.94c-94.85,3-155.13-54.28-176.78-153.34-63.54-290.83-178.89-510.54-271.07-661.39C1643.42,848,1404.34,631,1202.1,526c-141.62-73.52-241.92-151.7-425.59-45.61-45.82,26.46-92.61,53.4-143.66,77.27C251.06,736.26-13.17,534.62,10.7,2.11"/><path class="cls-1" d="M2756,2145.61s-288.69-341.79-578.12-354.86c-90.36-4.08-148.39-63.73-167.46-163-58.46-304-197.86-492.51-300.35-628.3C1616.67,875.8,1378.42,659,1188,547.54c-135-79-219.38-172.8-405.41-73.66-45.38,24.18-92.24,49.87-144,73.22C254.18,720.41-7.3,527.41,10.87,2.18"/><path class="cls-1" d="M2751.25,2153.46s-291.89-334.81-570-370.78c-85.82-11.11-141.54-73.21-158.16-172.57-53.06-317.34-217-474.46-329.61-595.19-103.76-111.27-341-328.13-519.61-445.87-128.32-84.58-196.73-193.77-385.25-101.7-44.91,21.93-91.86,46.35-144.39,69.17C257.32,704.6-1.43,520.2,11,2.24"/><path class="cls-1" d="M2746.52,2161.31s-294.94-327.51-561.85-386.71c-81.23-18-134.6-82.69-148.84-182.17-47.36-330.68-236.43-456.31-358.89-562.09-114.33-98.75-350.27-315.93-517.15-439.78-121.64-90.28-174-214.61-365.08-129.74C750.3,480.54,703.22,503.66,650,525.94,260.49,688.83,4.43,513,11.21,2.3"/><path class="cls-1" d="M2741.8,2169.16s-297.94-319.83-553.72-402.63c-76.64-24.81-127.58-92.19-139.54-191.78-41.33-344-256-438-388.16-529-125.06-86.09-359.49-303.9-514.69-433.68C1030.77,516,994.59,376.78,800.77,454.29c-43.88,17.55-91.1,39.33-145.12,61.07-392,157.74-645.35-9.57-644.27-513"/><path class="cls-1" d="M2737.07,2177s-301-311.73-545.59-418.55c-72.05-31.47-120.47-101.68-130.23-201.39-35-357.42-275.66-419.51-417.42-495.9-135.91-73.23-368.61-292-512.24-427.58-108.11-102-128.14-255.79-324.75-185.83-43.34,15.42-90.72,35.83-145.49,57C266.86,657.41,16.17,498.58,11.55,2.43"/><path class="cls-1" d="M2732.34,2184.86s-304.26-303.22-537.45-434.47c-67.53-38-113.3-111.17-120.92-211-28.32-370.79-295.39-400.79-446.7-462.8-146.79-60.16-377.59-280.3-509.78-421.49C1016.28,547,1012.38,379,812.9,441.23c-42.77,13.34-90.33,32.33-145.86,53C270.07,641.76,22,491.37,11.72,2.49"/><path class="cls-1" d="M2727.61,2192.7s-307.83-294.35-529.32-450.39c-63.1-44.45-106.06-120.64-111.61-220.61-21.33-384.12-315.08-381.85-476-429.69-157.65-46.88-386.4-268.7-507.32-415.39-94.17-114.24-82-296.14-284.42-241.91-42.2,11.3-90,28.83-146.23,48.91C273.28,626.15,27.91,484.16,11.89,2.56"/><path class="cls-1" d="M2722.89,2200.55s-311.82-285.24-521.19-466.31c-58.78-50.84-98.77-130.11-102.3-230.22-14-397.42-334.69-362.76-505.24-396.6-168.45-33.42-395-257.18-504.87-409.29-87-120.46-58.92-315.94-264.26-269.95-41.62,9.32-89.55,25.34-146.59,44.86C276.51,610.58,33.77,477,12.06,2.62"/><path class="cls-1" d="M2718.16,2208.4s-316.25-276-513.06-482.23c-54.58-57.2-91.42-139.56-93-239.83-6.42-410.67-354.18-343.53-534.51-363.5-179.13-19.83-403.45-245.71-502.41-403.2-79.63-126.72-35.81-335.45-244.09-298-41.05,7.38-89.17,21.86-147,40.81C279.74,595,39.64,469.75,12.23,2.68"/><path class="cls-1" d="M2713.43,2216.25s-321.11-266.79-504.92-498.16c-50.5-63.56-84-149-83.68-249.43,1.5-423.85-373.55-324.23-563.79-330.4-189.69-6.16-411.68-234.24-499.95-397.1-72.1-133-12.73-354.69-223.93-326-40.49,5.49-88.77,18.39-147.32,36.76C283,579.55,45.51,462.54,12.4,2.75"/><path class="cls-1" d="M2708.7,2224.1S2382.37,1966.43,2211.91,1710c-46.51-70-76.61-158.37-74.37-259,9.72-436.94-392.79-304.87-593-297.29s-419.71-222.74-497.5-391c-64.39-139.28,10.28-373.62-203.76-354.08-39.94,3.65-88.38,14.92-147.69,32.71-409.31,122.78-644.16,14-683-438.49"/><path class="cls-1" d="M2704,2232s-331.86-248.72-488.66-530c-42.61-76.44-69.16-167.75-65.07-268.66,18.24-450-411.92-285.5-622.32-264.2s-427.56-211.14-495-384.91c-56.51-145.5,33.19-392.24-183.6-382.12-39.42,1.84-88,11.56-148.06,28.66C289.68,549.37,57.25,448.13,12.74,2.87"/><path class="cls-1" d="M2699.25,2239.8s-337.59-240-480.52-545.92c-38.77-83-61.67-177.1-55.76-278.27,27-462.89-431-266.14-651.6-231.1S1076.13,985.05,1018.79,805.7c-48.49-151.66,56-410.58-163.43-410.17-38.93.08-87.58,8.05-148.43,24.61C292.82,533.63,63.11,440.92,12.91,2.94"/><path class="cls-1" d="M2694.52,2247.65s-554.93-374-518.84-849.72-449.92-246.8-680.86-198S1052,1012.3,1004.69,827.21s124.61-526-292.06-417.65S69,433.71,13.08,3"/><path class="cls-1" d="M2705,2230.21s-533.53-386.37-517.53-840.32S1721.14,1177,1489.94,1204.17c-226,26.54-428-199.88-474.82-384.05C967.63,633,1128.32,301.19,717.91,402.21c-28.15,6.82-55.52,12.92-82.18,18C262.1,491.4,67.36,397.61,12.82,2.88"/><path class="cls-1" d="M2715.53,2212.76s-512.12-398.72-516.21-830.9-480.81-178.81-714.27-173.45c-219.68,5-413.17-212.12-459.5-395.38-47.63-189.11,102.11-510.49-302.37-418.17-27.95,6.38-55.28,12-82,16.63C258.23,477.83,69.53,390.78,12.57,2.76"/><path class="cls-1" d="M2726,2195.32s-490.72-411.08-514.9-821.49-493.4-144.16-731-161.18C1268,1197.45,1081.82,988.29,1036,805.94c-47.79-191.13,90.8-502.82-307.53-418.43-27.78,5.89-55.06,11.05-81.89,15.25C254.32,464.16,71.71,384,12.31,2.64"/><path class="cls-1" d="M2736.54,2177.88S2267.23,1754.44,2223,1365.8s-504.45-108.52-747.67-148.91c-203.72-33.83-383.54-236.6-428.87-418-47.94-193.14,79.46-495.2-312.69-418.69C706.13,385.55,678.9,390.27,652,394,250.35,450.38,73.88,377.11,12.06,2.52"/><path class="cls-1" d="M2747.05,2160.44s-447.92-435.8-512.28-802.68-514.41-71.55-764.36-136.63c-194.75-50.71-368.72-248.84-413.56-429.37C1008.77,596.6,1125,304.11,739,372.82c-27.42,4.88-54.61,9.14-81.6,12.5-411,51.16-581.34-15-645.6-382.92"/><path class="cls-1" d="M2757.55,2143s-426.51-448.15-511-793.26-523.86-33.06-781.06-124.36c-185.62-65.9-353.91-261.09-398.24-440.7-48.24-197.17,56.7-480.17-323-419.2-27.25,4.37-54.39,8.18-81.46,11.13C242.32,422.47,78.23,363.45,11.55,2.28"/><path class="cls-1" d="M2768.06,2125.55S2363,1665,2258.41,1341.7s-558.93,52.51-797.76-112.09c-188.06-46.68-339.09-273.33-382.93-452C1029.33,578.39,1123,304.83,749.55,358.12c-27.08,3.86-54.17,7.2-81.31,9.76C238.27,408.34,80.41,356.62,11.29,2.16"/><path class="cls-1" d="M2778.56,2108.11s-383.7-472.88-508.33-774.44-574.51,95.27-814.46-99.82c-181.93-60.32-324.27-285.57-367.61-463.37-48.55-201.19,33.83-465.4-333.33-419.71-26.92,3.35-54,6.22-81.17,8.38C234.19,394.1,82.59,349.79,11,2"/><path class="cls-1" d="M2789.07,2090.66s-362.3-485.23-507-765-590.08,138-831.16-87.54c-175.8-74-309.46-297.81-352.3-474.7-48.69-203.2,22.37-458.13-338.49-420-26.75,2.83-53.74,5.23-81,7C230.1,379.74,84.76,343,10.78,1.92"/><path class="cls-1" d="M2799.57,2073.22s-340.89-497.59-505.71-755.62-566.17,136.59-847.85-75.27c-152.6-114.78-294.64-310-337-486-48.84-205.22,10.9-450.94-343.64-420.23q-39.89,3.46-80.89,5.64C226,365.27,86.94,336.12,10.52,1.8"/><path class="cls-1" d="M2810.08,2055.78s-319.49-510-504.4-746.21-579.59,182.18-864.55-63c-145.8-125.46-279.83-322.3-321.67-497.36-49-207.23-.6-443.83-348.81-420.49Q731,331.39,689.91,333c-468,17.69-600.8-3.7-679.64-331.31"/><path class="cls-1" d="M2820.59,2038.33S2522.5,1516,2317.5,1301.54s-594.45,228.58-881.25-50.73c-139.61-136-265-334.54-306.36-508.69-49.14-209.25-12.1-436.8-354-420.74q-39.39,1.85-80.6,2.89C217.8,336,91.29,322.46,10,1.56"/><path class="cls-1" d="M2831.09,2020.89s-276.68-534.66-501.77-727.39-610.73,275.53-898-38.45c-134-146.47-250.2-346.78-291-520C1091,523.77,1116.71,305.17,781.2,314q-39.13,1-80.45,1.51c-487,5.61-607.29.09-691-314.1"/><path class="cls-1" d="M2841.6,2003.45s-255.28-547-500.46-718-628.34,322.79-914.65-26.18c-128.87-157.08-235.38-359-275.73-531.35-49.45-213.28-35.12-423-364.29-421.26q-38.88.21-80.31.14c-496.54-.6-610.52,2-696.66-305.5"/><path class="cls-1" d="M2852.1,1986S2618.23,1426.62,2353,1277.44s-647.16,370.18-931.35-13.91c-124.2-167.86-220.57-371.26-260.42-542.68-49.6-215.29-46.61-416.23-369.44-421.52q-38.64-.63-80.17-1.23C205.54,291.18,97.81,302,9.25,1.2"/><path class="cls-1" d="M2862.61,1968.56s-212.47-571.74-497.84-699.15-667,417.54-948-1.64c-119.91-178.87-205.75-383.5-245.1-554C1121.88,496.45,1113.53,304.2,797,292q-38.38-1.49-80-2.6C201.49,276,100,295.13,9,1.08"/><path class="cls-1" d="M2873.11,1951.12s-191.06-584.1-496.52-689.75-687.8,464.78-964.74,10.64c-115.94-190.12-190.94-395.75-229.79-565.34-49.9-219.32-69.56-403-379.76-422-25.43-1.56-52-2.92-79.88-4C197.45,260.76,102.16,288.3,8.74,1"/><path class="cls-1" d="M2883.62,1933.68S2714,1337.22,2388.41,1253.34,1679.1,1765.12,1407,1276.25c-112.24-201.63-176.12-408-214.48-576.67-50-221.34-81-396.47-384.92-422.29q-37.89-3.23-79.73-5.35C193.43,245.39,104.34,281.47,8.48.84"/><path class="cls-1" d="M2894.12,1916.23s-148.25-608.81-493.89-670.92-731.42,558.53-998.14,35.18c-108.76-213.39-161.31-420.23-199.16-588-50.21-223.35-92.39-390.07-390.08-422.55-25.09-2.74-51.57-5-79.59-6.73C189.43,229.92,106.51,274.64,8.23.72"/><path class="cls-1" d="M2904.63,1898.79s-126.85-621.18-492.58-661.52-754,605-1014.84,47.46c-105.45-225.39-146.49-432.47-183.85-599.33C1163,460,1109.62,301.65,818.12,262.59c-24.91-3.34-51.34-6.12-79.45-8.1C185.55,213.25,108.69,267.81,8,.6"/><path class="cls-1" d="M2915.13,1881.35s-105.45-633.54-491.26-652.11-777,651.14-1031.54,59.73-57.55-993.75-648.24-1043.2C181.53,198.67,110.86,261,7.72.48"/></g></g></svg>