<svg xmlns="http://www.w3.org/2000/svg" viewBox="0 0 6461.51 2044.23"><defs><style>.cls-1{fill:none;stroke:#fff;stroke-miterlimit:10;stroke-width:1.06px;}</style></defs><g id="Warstwa_2" data-name="Warstwa 2"><g id="Warstwa_1-2" data-name="Warstwa 1"><g id="Warstwa_2-2" data-name="Warstwa 2"><g id="Layer_1" data-name="Layer 1"><path class="cls-1" d="M6461.36,472.21S5371.43,143.06,5231.42,923.67s-735.67,776-1348.87,272.67S2802.92,102.84,2155.75,723.2s-1090,558-1434.25,386S290.11,547.18.35,564.35"/><path class="cls-1" d="M6461.14,529.37S5611.35,262.55,5309.65,750.7c-42.27,68.2-72.43,144.19-89.16,224.63-157.27,746.38-742.73,689.82-1343,185.09-600.71-505.61-1098.7-1072-1737.79-447.75Q2018.28,831.38,1907.85,922c-505.51,414.35-885,357.45-1191.48,201.55C378.53,951.72,284.91,567.61.53,564.38"/><path class="cls-1" d="M6460.88,586.43s-846.64-276-1156.34,219.31c-41,65.43-74.57,137.86-94.94,221-174.38,711.83-749.77,603.75-1337,97.57C3284.27,616.49,2754.77,73.85,2123.66,702.11c-80,79.83-155.68,151.6-227.93,215-489.23,429.28-872.13,382.39-1184.47,220.74C379.74,966.25,279.72,588.06.73,564.4"/><path class="cls-1" d="M6460.66,643.52S5617.17,358.36,5299.48,860.79c-42.36,66.79-78.27,137.73-100.78,217.48-191.22,677.11-756.79,517.62-1331.1,10-575.81-510.07-1137-1028.87-1760-396.73-79.21,80.55-153.35,154.35-223.9,220.69-473,443.81-859.48,407.29-1177.6,239.88C380.91,980.93,274.53,608.52,1,564.39"/><path class="cls-1" d="M6460.4,700.66s-840.31-294.36-1166,215.2c-43.71,68.15-81.94,137.58-106.64,213.95-207.73,642.09-763.84,431.53-1325.16-77.63C3299.29,539.8,2706.48,44.9,2091.57,680.9c-78.31,81.24-151,157.09-220,226.25C1414.72,1365.56,1025,1339.75,701,1166.4,382,995.69,269.34,629,1.11,564.44"/><path class="cls-1" d="M6460.17,757.76S5623,454.27,5289.31,970.92c-45.07,69.51-85.57,137.39-112.48,210.41-223.86,607-770.89,345.45-1319.16-165.08C3306.78,501.63,2682.39,30.45,2075.59,670.43c-77.42,81.93-148.71,159.77-216,231.86-441,472.53-834.06,457.72-1163.7,278.39C383.13,1010.58,264.12,649.42,1.31,564.47"/><path class="cls-1" d="M6459.94,814.86s-834-312.69-1175.7,211.12c-46.44,70.84-89.16,137.17-118.35,206.84-239.53,571.78-777.92,259.37-1313.2-252.6C3314.29,463.33,2658.27,15.93,2059.57,659.88c-76.55,82.61-146.44,162.39-212,237.48C1422.42,1383.83,1026.27,1380.27,690.78,1195,384.17,1025.57,258.92,669.79,1.49,564.48"/><path class="cls-1" d="M6459.71,872S5628.84,550.1,5279.17,1081.06c-47.79,72.22-92.68,136.94-124.19,203.3-254.68,536.46-785,173.29-1307.26-340.15C3321.83,425.13,2634.21,1.49,2043.53,649.32c-75.66,83.29-144.12,165-208,243.09C1426,1392.68,1026.81,1400.7,685.67,1209.26c-300.48-168.6-431.91-519-684-644.76"/><path class="cls-1" d="M6459.45,929.06s-827.7-331-1185.37,207c-49.13,73.56-96.05,136.67-130,199.76-269.27,501.12-792,87.19-1301.3-427.7C3329.27,386.71,2610.12-13,2027.49,638.73c-74.76,84-141.77,167.63-204,248.72-394,513.88-796.1,533.68-1142.93,336.1-294.39-167.72-432-512.81-678.67-659"/><path class="cls-1" d="M6459.24,986.2s-824.56-340.23-1190.31,205c-50.47,74.92-99.58,136.39-135.87,196.22-283.22,465.87-799,1.1-1295.34-515.23C3336.8,348.47,2586-27.47,2011.44,628.22c-73.88,84.72-139.62,170.24-200,254.32-378.68,527.29-783.56,559.18-1136,355.33C387.07,1071.09,243.38,731.2,2.08,564.56"/><path class="cls-1" d="M6459,1043.3s-821.39-349.4-1195.07,203c-51.83,76.26-102.86,136.2-141.74,192.66C4825.7,1869.71,4316.05,1354,3832.83,836.14c-488.54-526-1270.9-878.11-1837.39-218.5-73,85.42-137.41,172.79-196,260-363.51,540.53-771.05,584.72-1129.12,374.5C388,1086.4,238.18,751.63,2.25,564.57"/><path class="cls-1" d="M6458.76,1100.41s-818.24-358.59-1199.91,200.92c-53.17,77.62-106.09,136-147.57,189.12-309.08,396-813.1-171.08-1283.43-690.32-476-528.23-1290-856.56-1848.42-193.06-72.12,86.13-135.24,175.35-192,265.59-348.52,553.68-758.57,610.39-1122.14,393.85C388.86,1101.79,233,772.05,2.45,564.58"/><path class="cls-1" d="M6458.52,1157.52S5643.45,789.76,5253.78,1356.4c-54.53,79-109.27,135.83-153.42,185.57-321,361.58-820.14-257.17-1277.47-777.86C3359.31,233.6,2513.72-70.92,1963.4,596.52c-71.28,86.88-133.09,177.86-188.11,271.14-333.63,566.77-746.13,636.12-1115.24,413-270.41-163.39-432.24-488.11-657.42-716"/><path class="cls-1" d="M6458.3,1214.64S5646.37,837.7,5248.76,1411.45c-55.89,80.31-112.35,135.72-159.29,182-332.32,327.72-827.17-343.24-1271.5-865.4C3366.87,195.28,2489.66-85.43,1947.44,586a1908.27,1908.27,0,0,0-184.08,276.82C1444.33,1442.45,1029.58,1524.71,655,1295,390.48,1132.77,222.61,813,2.83,564.64"/><path class="cls-1" d="M6458.07,1271.74s-808.79-386.11-1214.44,194.79c-57.24,81.68-115.42,135.79-165.11,178.46-343.09,294.5-834.21-429.33-1265.54-952.94C3374.33,157,2465.5-99.86,1931.35,575.38a1741.89,1741.89,0,0,0-180.09,282.46c-304.52,592.58-721.42,687.92-1101.39,451.46C391.21,1148.29,217.4,833.43,3,564.65"/><path class="cls-1" d="M6457.82,1328.85S5652.18,933.53,5238.56,1521.6a749.08,749.08,0,0,1-171,174.93C4714.06,1958.59,4226.34,1181.1,3808,656c-426.17-537.3-1366.58-770.4-1892.69-91.19a1605.74,1605.74,0,0,0-176.09,288.07C1449,1458.22,1030.05,1566.87,644.66,1323.6,392,1164,212.22,853.86,3.21,564.67"/><path class="cls-1" d="M6457.65,1385.92S5655.2,981.46,5233.53,1576.6C5173.6,1661,5112.39,1712.72,5056.71,1748c-363.57,230.34-848.25-601.46-1253.64-1128-413.74-539.53-1385.8-748.79-1903.79-65.69a1499.84,1499.84,0,0,0-172.07,293.77c-276.16,618.07-697,740-1087.61,489.8C392.67,1179.67,207,874.31,3.4,564.71"/><path class="cls-1" d="M6457.36,1443.06s-799.31-413.64-1228.95,188.68c-61.26,85.82-124,136.44-182.69,167.83C4672.15,1999.09,4190.4,1111.93,3798.07,584c-401.23-541.86-1404.79-727.3-1914.8-40.27A1411.32,1411.32,0,0,0,1715.14,843C1453,1474,1030.31,1609.41,634.47,1352.14,393.33,1195.4,201.84,894.77,3.58,564.7"/><path class="cls-1" d="M6457.13,1500.18S5661,1077.36,5223.32,1686.81c-62.63,87.08-126.85,137-188.52,164.28C4651,2020.62,4172.45,1077.37,3793.09,548c-388.76-544.13-1424-705.79-1925.85-14.82q-98.91,136.51-164.1,304.92c-248.34,643.71-672.78,792.75-1073.72,528.34C394,1211.18,196.65,915.2,3.77,564.74"/><path class="cls-1" d="M6456.88,1557.29s-793-432-1238.64,184.58c-64,88.44-129.73,137.75-194.36,160.74C4629.59,2042.92,4154.5,1042.8,3788.12,512,3411.84-34.43,2345-172.28,1851.18,522.55c-65.06,91.71-118.91,195.18-160.15,310.56-234.65,656.54-660.8,819.33-1066.78,547.62C394.56,1227,191.46,935.65,4,564.77"/><path class="cls-1" d="M6456.6,1614.42S5666.75,1173.25,5213.13,1797c-65.35,89.79-132.73,138.59-200.21,157.19C4607.65,2065.91,4136.48,1008.27,3783.11,476c-363.81-548.66-1462.22-662.7-1948,36.09-64.17,92.39-117,197.63-156.17,316.17-221.06,669.32-648.88,845.92-1059.81,566.8-224-152.16-432.86-438.91-615-830.24"/><path class="cls-1" d="M6456.42,1671.5S5669.69,1221.18,5208.1,1852s-1032-788.2-1429.92-1412.09S1983.79-217.07,1667,823.3,517.58,1760.57,4.35,564.81"/><path class="cls-1" d="M6456.34,1689.22s-787.92-435-1250.43,145.82c-148.86,186.92-307.74,173.45-464.32,42.19-346.74-290.66-701.66-1007.65-975.15-1396.1-242-343.69-839.65-505.19-1337.15-372-332.46,89-623.32,292-758.78,697.52-37.6,112.54-80.45,213-129.61,300.79C1157.14,1796.75,462.54,1608.51,4.7,564.72"/><path class="cls-1" d="M6456.27,1707s-789-419.91-1252.7,111.19c-149.09,170.78-306.94,152.75-458.58,17.37-352.68-314.88-713.38-959.46-990.4-1313C3509.46,209.59,2913,48.24,2427.21,158.75,2100.92,233,1818.46,394.53,1673.94,790c-39.53,108.19-83.38,206.49-134.08,294.15C1145.69,1766,464.94,1591,5,564.73"/><path class="cls-1" d="M6456.19,1724.68s-789.91-405-1254.87,76.53c-149.3,154.61-306,131.59-452.83-7.47C4389.93,1454,4023.26,882.35,3742.8,563.76c-248.39-282.22-843.67-443.37-1317.61-355.43-320.3,59.47-594,179.54-747.78,565.05-41.43,103.83-86.2,200-138.53,287.49C1135.14,1735.7,467.45,1573.32,5.32,564.7"/><path class="cls-1" d="M6456.13,1742.4s-790.59-390.16-1257.07,41.88C5049.63,1922.67,4894.18,1894.53,4752,1752c-364.29-365.1-737.23-863.46-1021-1147-251.82-251.64-846-412.55-1307.85-347.1-314.28,44.55-579,123.19-742.24,498.8-43.22,99.44-89,193.6-143,280.85C1124.66,1705.45,470,1555.68,5.68,564.63"/><path class="cls-1" d="M6456.05,1760.12s-790.93-375.48-1259.21,7.28c-149.46,122.13-303.6,88.57-441.41-57.13-369.78-391-749.44-815.6-1036.21-1063.9-255.46-221.23-848.53-382-1298.11-338.84-308.53,29.64-563.87,66.79-736.75,432.56-44.92,95.07-91.8,187.2-147.43,274.2C1114.28,1675.24,472.44,1538,6,564.62"/><path class="cls-1" d="M6456,1777.85s-790.91-360.92-1261.43-27.4c-149.34,105.86-302.13,66.66-435.64-82-375-417.44-762-767.83-1051.5-980.85-259.3-190.8-851.17-351.5-1288.38-330.45-302.76,14.5-548.39,10.37-731.18,366.26-46.57,90.71-94.62,180.8-151.92,267.56C1104.05,1645,475.05,1520.39,6.35,564.55"/><path class="cls-1" d="M6455.92,1795.57s-790.44-346.38-1263.64-62.09C5043.13,1823,4891.76,1778,4762.36,1626.7c-379.87-444.31-774.79-720.05-1066.75-897.81C3432.18,568.54,2841.54,407.56,2417,406.68c-297.26-.61-532.76-46-725.71,300.11-48.14,86.34-97.38,174.36-156.38,260.89C1093.77,1614.94,477.51,1502.79,6.68,564.5"/><path class="cls-1" d="M6455.87,1813.28s-789.44-331.75-1265.82-96.74c-148.72,73.37-298.76,22.28-424.22-131.71-384.32-471.51-788-672.12-1082-814.78-267.91-129.83-857-291.21-1268.77-313.73-291.9-15.94-516.81-102.4-720.19,233.85-49.61,82-100.16,168-160.79,254.22C1083.61,1584.87,480,1485.15,7,564.47"/><path class="cls-1" d="M6455.77,1831s-787.91-316.88-1268-131.38c-148.17,57.23-296.84-.14-418.47-156.46-388.42-499.29-801.38-624-1097.28-731.72-272.68-99.31-860.23-261.68-1259.06-305.53-286.52-31.49-500.55-158.66-714.68,167.63-51,77.72-102.91,161.55-165.29,247.59C1073.53,1554.85,482.54,1467.51,7.29,564.46"/><path class="cls-1" d="M6455.69,1848.75s-785.81-301.59-1270.2-166.06C5038.1,1724,4890.71,1660,4772.79,1501.4c-392-527.34-815.17-575.46-1112.57-648.67C3382.57,784.39,2796.8,620.31,2410.93,555.5c-281.26-47.24-484-214.77-709.16,101.4-52.32,73.47-105.68,155.17-169.68,240.89C1063.54,1524.87,485,1449.9,7.68,564.38"/><path class="cls-1" d="M6455.63,1866.47s-783.28-285.7-1272.39-200.72c-146.55,25.47-292.61-45.25-407-206.11C4381.15,904,3947.22,933.12,3648.41,894c-282.74-37-866.7-203.5-1239.51-288.91-276-63.2-467.12-270.76-703.66,35.17-53.55,69.26-108.41,148.79-174.2,234.29C1053.56,1495,487.56,1432.26,8,564.33"/><path class="cls-1" d="M6455.54,1884.18s-780.44-269-1274.57-235.37c-145.56,9.91-290.29-67.91-401.26-230.94-397.79-584.38-842.86-477.18-1143.09-482.61-287.84-5.18-869.94-174.89-1229.76-280.58C2136.08,575.21,1957,328.19,1708.72,623.6,1654,688.71,1597.57,766,1530,851.2,1043.71,1465.09,490.08,1414.62,8.35,564.3"/><path class="cls-1" d="M6455.48,1901.92s-777.53-251.47-1276.75-270c-144.56-5.36-287.87-90.64-395.52-255.78-399.87-613.35-856.59-427.39-1158.38-399.55-292.78,27-873.15-146.76-1220-272.29-265.56-96.11-432.42-381.95-692.64-97.3-55.8,61-113.87,136-183.11,221C1033.89,1435.29,492.53,1397,8.68,564.25"/><path class="cls-1" d="M6455.39,1919.63s-774.77-233-1278.94-304.67c-143.62-20.41-285.32-113.39-389.78-280.61-401.41-642.52-870-377.26-1173.69-316.47-297.49,59.54-876.18-118.94-1210.22-264-260.14-112.94-414.53-437-687.12-163.54C1658.81,647.38,1599,720.1,1528,804.71,1024.11,1405.55,495.11,1379.34,9,564.22"/><path class="cls-1" d="M6455.33,1937.35S5682.87,1723.57,5174.2,1598c-142.81-35.25-282.68-136.19-384.05-305.45-402.37-671.94-883.22-326.93-1188.92-233.46-301.93,92.32-878.94-91.45-1200.45-255.64-254.6-130-396.48-491.67-681.62-229.77-57.79,53.08-119.3,123.31-192.06,207.68C1014.4,1375.86,497.65,1361.8,9.35,564.17"/><path class="cls-1" d="M6455.25,1955.08s-770.72-193.93-1283.31-374c-142.16-49.95-279.94-159-378.34-330.27-402.89-701.51-896.07-276.48-1204.18-150.42-306.06,125.23-881.53-64.18-1190.7-247.35-248.77-147.38-378.08-545.82-676.1-296-58.73,49.23-122,117-196.58,201.07-521.35,588-1025.91,586-1516.36-194"/><path class="cls-1" d="M6455.18,1972.8s-769.71-173.74-1285.5-408.64c-141.7-64.53-277.08-181.86-372.57-355.1-402.8-731.25-908.67-226-1219.48-67.36-309.91,158.16-883.75-37.1-1180.91-239C2154,737.78,2037.23,303.18,1726.16,540.5c-59.65,45.48-124.7,110.65-201,194.38C995.14,1316.65,502.65,1326.45,10,564.09"/><path class="cls-1" d="M6455.1,1990.53s-769.35-153.39-1287.71-443.33c-141.46-79.17-274.18-204.57-366.8-379.86C4398.45,406.23,3879.6,991.8,3566,1183s-885.63-10.16-1171.16-230.71c-236.35-182.57-340.71-652.56-665.08-428.47-60.52,41.82-127.38,104.32-205.43,187.73C985.65,1287.16,505.25,1308.78,10.42,564.1"/><path class="cls-1" d="M6455.12,2008.32s-769.66-133.06-1289.88-477.95C5023.87,1436.65,4894,1303,4804.11,1125.6c-401-791.18-933.14-125.16-1250,98.72S2667,1241.13,2392.79,1001.88c-229.67-200.29-321.79-705-659.57-494.7-61.42,38.24-130,98.2-209.9,181.09C977,1258.73,507.69,1291.19,10.68,564"/><path class="cls-1" d="M6455,2026s-770.51-113-1292.05-512.61c-141.48-108.44-268.14-250.11-355.39-429.6-399.25-821.17-945.21-74.85-1265.28,181.77S2654,1309.29,2390.62,1051.45c-222.7-218-302.76-756.89-654.06-560.95-62.32,34.77-132.67,91.78-214.37,174.44C967,1228.83,510.18,1273.56,11,564"/><path class="cls-1" d="M6454.89,2043.7S5207.93,1893.37,4811,1042s-957-24.7-1280.53,264.81-889.1,70.87-1141.87-205.78S2085.44,84.33,1521.21,641.65,512.73,1255.9,11.35,563.92"/><path class="cls-1" d="M6455,2004.34S5230.53,1813.67,4822.2,1017.68,3871.27,1066,3526.69,1318.46c-336.85,246.79-877.06,36.59-1128.17-238.91-255-280-314.67-994.38-875.87-455.25-38.6,36.79-76.63,71.64-114.5,104.11-530.78,455-932.56,466.78-1397.34-164.47"/><path class="cls-1" d="M6455.21,1964.92s-1202-231-1621.7-971.61S3892,1113.17,3522.91,1330.12c-347.31,204.06-865,2.31-1114.45-272.06-257.13-283.29-324.37-970-884.39-451.11-38.7,35.85-77.13,69.85-115.53,101.6-550.34,455-936,473-1398.24-144.59"/><path class="cls-1" d="M6455.31,1925.58S5275.82,1654.26,4844.72,969,3916.11,1159.73,3519,1341.82c-354.48,162.54-852.83-32-1100.6-305.27-259.31-286.63-335.17-946.7-892.91-447q-58.33,52.29-116.67,99.13C838.86,1143.45,469.55,1167.88,9.77,564"/><path class="cls-1" d="M6455.53,1886.16s-1157-311.65-1599.42-941.58-912.24,261.94-1340.68,408.79c-358.85,123-840.9-66.21-1087-338.27C2167,725.15,2082.4,91.61,1527,572.28c-39.19,33.81-78.32,66.16-117.87,96.52C819.32,1123.25,466.44,1154.09,9.25,564"/><path class="cls-1" d="M6455.71,1846.78s-1134.53-352-1588.42-926.52-892.87,334.47-1355.69,444.79C3151,1451,2682.75,1264.58,2438.29,993.58c-263.63-293.31-357-900.43-909.94-438.66-39.28,32.8-78.78,64.33-118.83,94.13-609.81,453.78-946.07,491.4-1400.8-85"/><path class="cls-1" d="M6455.86,1807.4S5343.85,1415.12,4878.5,896s-871.21,409.16-1370.72,480.77C3147.28,1428.41,2691,1242,2448.19,972.13,2182.38,675.5,2080,94.78,1529.75,537.61c-39.49,31.77-79.35,62.48-119.92,91.64C779.77,1082.33,460.36,1126.69,8.21,564"/><path class="cls-1" d="M6456,1768s-1089.5-432.72-1566.21-896.43-845.61,587.73-1385.75,516.76c-346,86.94-804.78-169-1045.85-437.69-268-300-379.41-854.47-927-430.42-39.71,30.74-79.94,60.59-121,89.15C759.77,1061.6,457.32,1113,7.67,564.07"/><path class="cls-1" d="M6456.18,1728.63s-1067-473-1555.09-881.4S4071.38,1522.45,3500.3,1400c-349.25,58-792.73-203.27-1032.17-470.9C2198,625.8,2077.43,97.5,1532.65,502.86c-40,29.72-80.6,58.76-122.09,86.65-670.94,451.2-956.27,509.78-1403.5-25.46"/><path class="cls-1" d="M6456.34,1689.22S5411.79,1176,4912.41,822.9s-813.81,762.66-1415.82,588.76c-352.5,29-780.69-237.53-1018.46-504C2205.83,601,2076,98.76,1534.1,485.5q-60.25,43-123.13,84.12c-691.63,450-959.7,516-1404.34-5.51"/><path class="cls-1" d="M6456.5,1649.85S5434.44,1096.24,4923.6,798.53s-776.84,739-1430.84,624.74c-354.31-61.9-768.59-271.71-1004.74-537.11-274.47-310-413.63-786.27-952.51-417.94q-60.62,41.44-124.25,81.68C698.93,998.35,448.19,1071.88,6.1,564.13"/><path class="cls-1" d="M6456.67,1610.46s-999.62-594-1521.8-836.28S4180.1,1603.6,3489,1434.91c-353.61-86.33-756.61-306.07-991-570.31-276.64-313.28-425.26-763.8-961-413.79q-61,39.88-125.31,79.21C678.44,976.88,445.15,1058.2,5.59,564.16"/><path class="cls-1" d="M6456.83,1571.06S5479.72,936.77,4946.14,749.84s-734.23,922.54-1460.91,696.71c-353.78-110-744.55-340.33-977.33-603.44-278.8-316.63-437-741.46-969.6-409.6q-61.36,38.24-126.41,76.69C657.81,955.24,442.1,1044.48,5,564.18"/><path class="cls-1" d="M6457,1531.68S5502.41,857.11,4957.4,725.48s-715.44,1017.88-1476,732.76c-354.79-133-732.53-374.58-963.52-636.59-281-320-448.81-719.29-978.1-405.57q-61.76,36.53-127.5,74.18C637.09,933.22,439,1030.74,4.49,564.14"/><path class="cls-1" d="M6457.16,1492.3S5525.08,777.43,4968.64,701.1s-698.47,1114.93-1491,768.71C3121,1314,2757.21,1061,2527.78,800.08c-283.16-323.29-460.68-697.2-986.59-401.33q-62.12,35-128.58,71.69C616.21,911.2,436,1017.09,4,564.18"/><path class="cls-1" d="M6457.31,1452.91S5547.71,697.67,4980,676.75,4296.66,1890,3474,1481.45c-359.54-178.57-708.45-443.11-936.19-702.86C2252.48,452,2065.18,103.27,1542.71,381.39q-62.54,33.3-129.67,69.21C595.31,889,433,1003.45,3.49,564.23"/><path class="cls-1" d="M6457.48,1413.52S5570.36,618,4991.18,652.45s-669.85,1312.5-1521,840.64c-363.19-201.35-696.39-477.37-922.46-736-287.56-329.95-484.73-653.6-1003.71-393q-62.94,31.59-130.71,66.7C574.31,866.42,429.93,989.67,3,564.24"/><path class="cls-1" d="M6457.64,1374.15S5593,538.25,5002.44,628.09s-658,1412.36-1536,876.68C3098.81,1280.52,2782,993.13,2557.63,735.64,2268,402.34,2060.87,103.52,1545.54,346.79Q1482.17,376.7,1413.69,411C553.26,843.77,426.87,976,2.48,564.34"/><path class="cls-1" d="M6457.81,1334.76s-842.08-876.26-1444.1-731-647.58,1512.44-1551,912.65C3090,1269,2790.34,970.46,2567.61,714.12,2275.87,377.44,2058.76,103.43,1547,329.37q-63.82,28.14-132.91,61.72C532.13,820.88,423.83,962.28,1.91,564.29"/><path class="cls-1" d="M6458,1295.37s-819.64-916.54-1433-716S4386.66,2192,3458.85,1528.06c-378.31-270.72-660.28-580.16-881.33-835.41-294-340-521-589.54-1029.16-380.61q-64.24,26.4-134,59.22c-903.44,426.54-993.59,577.33-1413,193"/><path class="cls-1" d="M6458.13,1256S5661,299.1,5036.23,555,4406.15,2267.77,3455.08,1539.7c-384.48-294.32-648.23-614.42-867.62-868.54C2291.26,327.8,2054.32,102.6,1549.78,294.69c-43.11,16.41-88.13,35.14-135.08,56.74C488.77,772.54,417.74,934.89.91,564.31"/><path class="cls-1" d="M6458.28,1216.61S5683.61,219.4,5047.5,530.69,4424.67,2343.35,3451.32,1551.35,2409.05-108.8,1415.05,331.59C468.39,751,414.71,921.23.35,564.35"/></g></g></g></g></svg>